<svg xmlns="http://www.w3.org/2000/svg" width="50.296" height="78.155" viewBox="0 0 50.296 78.155">
  <path id="パス_18" data-name="パス 18" d="M121.19,846.4l-3.13,2.054h-5.1l-2.189-2.054-.955-1.507v-1.6l.955-1.99,2.189-1.578h2.247l1.418,1.169.455,1.59V843.8l-.455,1.844-1.418,1.446-4.436,1.914-4.072-.55-3.263-1.363-1.681-1.81-.771-1.481v-3.487l1.428-1.454,1.024-.518h1.787l.923.518,1.2.87.519,1.169v1.59l-1.17,2.4-1.476,1.507-4.239,2.054-3.933-.4-1.878-.417-2.849-1.994L91.169,844.2l-.876-2.509.508-1.959.837-1.388,1.732-.947h1.224l1.421.411,1.507,1.055.67,1.454v1.375l-.67,2.509-1.507,1.447-3.691,1.994H89.813l-2.533-.548-1.536-.691-2.435-2.2-1.142-2.89V839.73l.409-2.335,3.168-9.2,3.15-10.936.475-9.485-.906-5.345-1.182-5.241.729-5.571,2.284-4.466,5.722-5.681,5.741-4.309,2.479-1.7.375-.991.613-1.625,2.646,3.3,1.017,1.818v2.471l-1.017,3.938-1.17,2.09-1.476,2.856-1.787,2.865-2.452,3.014-2.793,2.971-2.177,1.863-3.691,2.394-2.031.966-3.979.4-2.061-1.363-2.086-3.27L80.478,795.2l-1.5-3.584-1.628-4.466-1.247-2-.907-.778-2.154-.458,4.309-.778,3.127.39,2.831.845,3.006,2.09,1.7,1.741,2.284,5.081.508,4.883-.508,2.4-3.979,8.565-2.061,1.639-1.677,1.842-2.535,1.649-2.691,1.1H75.2l-1.359-.414-.795-1.211-.6-1.119V811.4" transform="translate(-71.442 -771.85)" fill="none" stroke="#707070" stroke-linejoin="round" stroke-width="2"/>
</svg>
