<svg xmlns="http://www.w3.org/2000/svg" width="219.64" height="82.14" viewBox="0 0 219.64 82.14">
  <g id="グループ_1" data-name="グループ 1" transform="translate(-131.901 -277.563)">
    <path id="パス_11" data-name="パス 11" d="M304.152,293.629q-1.626-.105-3.172-.234c-.748-.063-1.49-.115-2.226-.149-.277-.014-.485.322-.268.471a6.923,6.923,0,0,1,2.129,2.349,7.673,7.673,0,0,1,1.069,3.854,7.417,7.417,0,0,1-2.834,6.164,11.965,11.965,0,0,1-7.6,2.23c-.523,0-1.035-.021-1.543-.055s-1.018-.053-1.541-.053a2.979,2.979,0,0,0-1.879.682,2.1,2.1,0,0,0-.871,1.73,2.539,2.539,0,0,0,.7,1.991,4.163,4.163,0,0,0,2.61.687q1.569.048,3.085.077t3.086.078a17.394,17.394,0,0,1,4.4.576,8.8,8.8,0,0,1,2.972,1.416,5.513,5.513,0,0,1,1.684,2.045,5.921,5.921,0,0,1,.533,2.516,9.925,9.925,0,0,1-.758,3.724,9.675,9.675,0,0,1-2.357,3.409,12.659,12.659,0,0,1-4.123,2.515,16.456,16.456,0,0,1-6.057.995q-5.446,0-8.584-2.014a6.272,6.272,0,0,1-3.14-5.537,5.909,5.909,0,0,1,.531-2.514,7.633,7.633,0,0,1,1.375-2.045,6.639,6.639,0,0,1,1.906-1.417,10.348,10.348,0,0,1,1.406-.569.312.312,0,0,0,.036-.569,4.552,4.552,0,0,1-1.891-1.324,4.028,4.028,0,0,1-.9-2.623,3.633,3.633,0,0,1,.366-1.627,5.12,5.12,0,0,1,.926-1.31,4.834,4.834,0,0,1,1.291-.946,5.18,5.18,0,0,1,.623-.269c.265-.094.242-.533-.01-.657a9,9,0,0,1-3.25-2.61,7.682,7.682,0,0,1-1.459-4.8,8.091,8.091,0,0,1,.84-3.8,7.4,7.4,0,0,1,2.33-2.647,10.79,10.79,0,0,1,3.424-1.574,15.676,15.676,0,0,1,4.121-.524c.709,0,1.392.016,2.047.054s1.486.087,2.5.157c.859.07,1.625.12,2.3.157s1.215.051,1.625.051a27.79,27.79,0,0,0,4.547-.262Zm-3.816,28.629q0-3.147-1.963-4.4t-6.506-1.259a13.531,13.531,0,0,0-6.51,1.284q-2.3,1.287-2.3,4.642a6.617,6.617,0,0,0,.644,3.043,5.648,5.648,0,0,0,1.738,2.042,7.345,7.345,0,0,0,2.61,1.153,13.816,13.816,0,0,0,3.256.369,13.408,13.408,0,0,0,3.308-.418,9.571,9.571,0,0,0,2.889-1.26,6.8,6.8,0,0,0,2.047-2.123,5.787,5.787,0,0,0,.785-3.07m-3.031-22.7a6.942,6.942,0,0,0-1.678-5.034,6.657,6.657,0,0,0-9.147.181,7.465,7.465,0,0,0-1.683,5.114,8.066,8.066,0,0,0,1.543,5.216,5.794,5.794,0,0,0,4.8,1.917,5.905,5.905,0,0,0,2.775-.6,5.559,5.559,0,0,0,1.908-1.625,7.022,7.022,0,0,0,1.121-2.36,10.563,10.563,0,0,0,.364-2.8" fill="#666464"/>
    <path id="パス_12" data-name="パス 12" d="M253.6,282.415a2.8,2.8,0,1,1-2.8-2.8,2.8,2.8,0,0,1,2.8,2.8" fill="#666464"/>
    <path id="パス_13" data-name="パス 13" d="M272.227,282.415a2.8,2.8,0,1,1-2.8-2.8,2.8,2.8,0,0,1,2.8,2.8" fill="#666464"/>
    <path id="パス_14" data-name="パス 14" d="M238.853,310.6c0-2.266-.093-8.7-.093-10.2,0-7.135-4.131-9.38-8.824-9.126-4.57.247-7.292,3.557-8.663,5.808-.374.614-1.041.372-1.041-.269,0-.549-.076-4.8-.076-4.8q0-1.732.028-3.775t.078-4.065q.053-2.02.132-3.853c.043-1.047.094-1.958.152-2.75h-4.661c.058.794.11,1.713.154,2.775q.081,1.864.132,3.907t.079,4.144c.017,1.4.025,2.691.025,3.877v9.494q0,1.783-.025,3.877t-.079,4.142q-.053,2.046-.132,3.879c-.049,1.167-.107,2.133-.173,2.919h4.7q-.1-1.127-.17-2.864-.081-1.833-.132-3.8c-.035-1.313-.063-1.689-.078-2.98s-.028-.205-.028-1.183c0-3.976,2.377-11.753,8.665-11.753,3.327,0,5.851,2.615,5.851,7.974,0,0,.123,6.407.123,9.774,0,3.965,2.342,5.981,5.275,5.2-1.031-.734-1.217-2.687-1.217-6.343" fill="#666464"/>
    <path id="パス_15" data-name="パス 15" d="M271.141,312.35c-.038-1.505-.053-3.042-.053-4.616,0-2.832.015-5.719.053-8.257.031-2.407.072-5.955.291-7.493h-4.311a22.521,22.521,0,0,1,.086,2.47V300.4a13.226,13.226,0,0,1-.025,1.951c-.577,9.175-4.3,12.31-8.62,12.31-3.5,0-5.978-1.952-5.978-6.982v-9.2a56.848,56.848,0,0,1,.33-6.5h-4.355a30.936,30.936,0,0,1,.275,4.336c.014,1.438.074,10.61.074,12.463,0,5.354,3.42,8.444,9.26,8.444,4.967,0,7.375-3.979,8.467-6.38.142-.312.675-.383.675.084,0,1.861-.013,4.547-.023,4.774-.018.305-.039.592-.066.872H271.5a27.37,27.37,0,0,1-.355-4.227" fill="#666464"/>
    <path id="パス_16" data-name="パス 16" d="M316.01,312.011q-.08-2.6-.08-4.958v-.76c0-8.666,4.07-12.3,8.435-12.3,2.649,0,5.268,1.3,5.268,7.107v9.828a37.039,37.039,0,0,1-.229,5.645h4.571a26.574,26.574,0,0,1-.356-3.937c-.055-1.241-.076-2.616-.076-4.118,0-1.072-.008-1.945-.014-3.5.381-7.685,4.258-11.029,8.4-11.029,2.65,0,5.267,1.3,5.267,7.107v9.828a37.2,37.2,0,0,1-.226,5.645h4.57a26.987,26.987,0,0,1-.356-3.937c-.056-1.241-.078-2.616-.078-4.118,0-2.48-.035-7.624,0-9.04,0-5.651-3.789-8.209-7.91-8.209-5.4,0-7.955,3.831-9.058,6.074-.3.6-.657.379-.727-.068-.687-4.384-4.1-6.006-7.779-6.006-5.2,0-7.77,3.577-8.938,5.838-.41.8-.746.538-.717-.044.081-1.607.243-3.838.307-5.082h-4.613c.15,1.391.252,3.081.3,4.661q.081,2.6.08,4.957v5.451q0,2.362-.08,4.958-.074,2.511-.325,4.565h4.688q-.249-2.05-.324-4.565" fill="#666464"/>
    <path id="パス_17" data-name="パス 17" d="M236.7,326.6c-10.439,4.99-24.008-13.038-43.5.386-10.3,7.1-15.474-3.027-19.97-7.521-4.014-4.016,29.787-6.558,20.034,9.934-6.093,10.3-51.042,18.9-60.042,1.89-5-9.449,10.045-1.369,12.4,9.9.8,3.877-1.018,7.834,5.729,7.914,2.943.035,6.1-.1,7.333,2.412.887,1.812.559,4.15,4.848,4.939,3.459.637,9.075-1.219,13.746,1.371,6.376,3.531,20.19,1.131,32.719-9.291,23.044-19.164,31.059-13.22,37.053-7.531" fill="none" stroke="#231815" stroke-miterlimit="10" stroke-width="0.6"/>
  </g>
</svg>
