<svg xmlns="http://www.w3.org/2000/svg" width="171.15" height="64.179" viewBox="0 0 171.15 64.179">
  <path id="パス_7" data-name="パス 7" d="M416.964,218.637c-15.537,7.432-35.731-19.4-64.74.577-15.33,10.562-23.027-4.505-29.721-11.195-5.974-5.974,44.333-9.762,29.818,14.783-9.069,15.335-75.968,28.128-89.363,2.816-7.443-14.063,14.952-2.037,18.447,14.734,1.2,5.77-1.513,11.664,8.528,11.78,4.378.05,9.083-.155,10.913,3.589,1.322,2.7.831,6.176,7.216,7.352,5.149.947,13.508-1.814,20.459,2.04,9.491,5.256,30.047,1.684,48.7-13.825,34.3-28.523,46.225-19.678,55.147-11.211" transform="translate(-261.301 -203.409)" fill="none" stroke="#231815" stroke-miterlimit="10" stroke-width="0.247"/>
</svg>
