<svg xmlns="http://www.w3.org/2000/svg" width="118.376" height="46.62" viewBox="0 0 118.376 46.62">
  <g id="グループ_1" data-name="グループ 1" transform="translate(-261.32 -180.22)">
    <path id="パス_1" data-name="パス 1" d="M354.147,191.257q-.876-.057-1.71-.127c-.4-.033-.8-.062-1.2-.079-.149-.008-.26.173-.144.253a3.748,3.748,0,0,1,1.149,1.266,4.139,4.139,0,0,1,.575,2.079,4,4,0,0,1-1.527,3.323,6.454,6.454,0,0,1-4.1,1.2c-.283,0-.559-.011-.832-.029s-.549-.029-.831-.029a1.607,1.607,0,0,0-1.013.368,1.133,1.133,0,0,0-.47.933,1.371,1.371,0,0,0,.378,1.074,2.251,2.251,0,0,0,1.407.369c.564.018,1.118.03,1.664.042s1.1.023,1.663.042a9.407,9.407,0,0,1,2.373.31,4.746,4.746,0,0,1,1.6.764,2.976,2.976,0,0,1,.907,1.1,3.185,3.185,0,0,1,.288,1.357,5.372,5.372,0,0,1-.408,2.008,5.2,5.2,0,0,1-1.272,1.837,6.832,6.832,0,0,1-2.222,1.357,8.892,8.892,0,0,1-3.265.536,8.508,8.508,0,0,1-4.628-1.086,3.381,3.381,0,0,1-1.693-2.985,3.2,3.2,0,0,1,.286-1.356,4.1,4.1,0,0,1,.742-1.1,3.583,3.583,0,0,1,1.027-.764,5.318,5.318,0,0,1,.758-.306.168.168,0,0,0,.019-.307,2.465,2.465,0,0,1-1.019-.714,2.174,2.174,0,0,1-.483-1.414,1.948,1.948,0,0,1,.2-.877,2.734,2.734,0,0,1,.5-.706,2.609,2.609,0,0,1,.7-.511,3.07,3.07,0,0,1,.336-.145c.143-.05.132-.287,0-.355a4.82,4.82,0,0,1-1.752-1.406,4.137,4.137,0,0,1-.788-2.588,4.359,4.359,0,0,1,.454-2.049,3.993,3.993,0,0,1,1.255-1.426,5.818,5.818,0,0,1,1.847-.849,8.432,8.432,0,0,1,2.222-.283q.573,0,1.1.029t1.346.086q.695.054,1.239.084c.364.018.656.026.877.026a15,15,0,0,0,2.451-.14Zm-2.058,15.434a2.6,2.6,0,0,0-1.057-2.374,6.787,6.787,0,0,0-3.508-.678,7.29,7.29,0,0,0-3.509.692,2.611,2.611,0,0,0-1.24,2.5,3.56,3.56,0,0,0,.348,1.64,3.03,3.03,0,0,0,.937,1.1,3.968,3.968,0,0,0,1.406.621,7.441,7.441,0,0,0,1.756.2,7.245,7.245,0,0,0,1.784-.225,5.179,5.179,0,0,0,1.557-.679,3.674,3.674,0,0,0,1.1-1.145,3.11,3.11,0,0,0,.423-1.655m-1.633-12.239a3.747,3.747,0,0,0-.9-2.715,3.591,3.591,0,0,0-4.931.1,4.029,4.029,0,0,0-.908,2.757,4.362,4.362,0,0,0,.832,2.813,3.126,3.126,0,0,0,2.587,1.034,3.172,3.172,0,0,0,1.5-.327,3.015,3.015,0,0,0,1.029-.875,3.819,3.819,0,0,0,.6-1.272,5.732,5.732,0,0,0,.2-1.513" fill="#666464"/>
    <path id="パス_2" data-name="パス 2" d="M326.9,185.21a1.51,1.51,0,1,1-1.509-1.51,1.51,1.51,0,0,1,1.509,1.51" fill="#666464"/>
    <path id="パス_3" data-name="パス 3" d="M336.935,185.21a1.51,1.51,0,1,1-1.511-1.51,1.51,1.51,0,0,1,1.511,1.51" fill="#666464"/>
    <path id="パス_4" data-name="パス 4" d="M318.943,200.406c0-1.222-.05-4.69-.05-5.5,0-3.846-2.228-5.057-4.757-4.92a5.963,5.963,0,0,0-4.671,3.132c-.2.331-.561.2-.561-.146,0-.3-.041-2.589-.041-2.589,0-.624.005-1.3.014-2.036s.024-1.465.043-2.191.042-1.418.071-2.078c.024-.564.051-1.054.082-1.482H306.56c.032.428.06.923.083,1.5q.043,1,.071,2.106t.043,2.234c.009.753.014,1.452.014,2.09v5.119q0,.962-.014,2.09c-.01.756-.024,1.5-.043,2.234s-.042,1.431-.071,2.091c-.026.629-.058,1.15-.093,1.573h2.533c-.035-.4-.066-.92-.092-1.544q-.043-.988-.071-2.049c-.019-.708-.034-.911-.043-1.606s-.014-.112-.014-.638c0-2.143,1.281-6.336,4.671-6.336,1.794,0,3.154,1.41,3.154,4.3,0,0,.066,3.455.066,5.27,0,2.138,1.264,3.224,2.845,2.8-.557-.4-.656-1.448-.656-3.419" fill="#666464"/>
    <path id="パス_5" data-name="パス 5" d="M336.35,201.349q-.03-1.217-.028-2.488c0-1.527.008-3.084.028-4.451.017-1.3.039-3.211.156-4.04h-2.323a12.172,12.172,0,0,1,.046,1.331v3.2a7.1,7.1,0,0,1-.014,1.053c-.31,4.946-2.317,6.636-4.647,6.636-1.888,0-3.222-1.053-3.222-3.764v-4.958a30.535,30.535,0,0,1,.178-3.5h-2.348a16.767,16.767,0,0,1,.148,2.338c.007.774.04,5.72.04,6.718,0,2.886,1.844,4.553,4.992,4.553,2.678,0,3.975-2.145,4.565-3.441.077-.166.364-.206.364.046,0,1-.007,2.452-.013,2.574-.009.165-.021.319-.036.47h2.3a14.848,14.848,0,0,1-.191-2.279" fill="#666464"/>
    <path id="パス_6" data-name="パス 6" d="M360.54,201.167q-.042-1.4-.043-2.673v-.41c0-4.672,2.194-6.629,4.547-6.629,1.429,0,2.84.7,2.84,3.831v5.3a19.926,19.926,0,0,1-.123,3.044h2.464a14.391,14.391,0,0,1-.191-2.123c-.031-.669-.042-1.409-.042-2.22,0-.577,0-1.048-.007-1.884.206-4.144,2.3-5.946,4.529-5.946,1.429,0,2.84.7,2.84,3.831v5.3a20.064,20.064,0,0,1-.122,3.044H379.7a14.39,14.39,0,0,1-.192-2.123c-.03-.669-.042-1.409-.042-2.22,0-1.337-.019-4.11,0-4.874a4.072,4.072,0,0,0-4.264-4.425,5.351,5.351,0,0,0-4.885,3.274c-.16.325-.354.205-.391-.037-.37-2.363-2.21-3.237-4.2-3.237a5.311,5.311,0,0,0-4.817,3.147c-.222.429-.4.291-.387-.024.043-.866.131-2.069.165-2.739H358.2c.081.75.135,1.66.16,2.513q.045,1.4.044,2.672v2.939q0,1.272-.044,2.673c-.027.9-.085,1.724-.175,2.461h2.528c-.09-.737-.149-1.559-.175-2.461" fill="#666464"/>
    <path id="パス_7" data-name="パス 7" d="M317.784,209.03c-5.628,2.692-12.943-7.028-23.451.209-5.553,3.826-8.341-1.632-10.766-4.055-2.164-2.164,16.059-3.536,10.8,5.355-3.285,5.555-27.518,10.189-32.37,1.02-2.7-5.094,5.416-.738,6.682,5.337.434,2.09-.548,4.225,3.089,4.267,1.586.018,3.29-.056,3.953,1.3.479.978.3,2.237,2.614,2.663,1.865.343,4.893-.657,7.411.739,3.438,1.9,10.884.61,17.64-5.008,12.423-10.332,16.744-7.128,19.976-4.061" fill="none" stroke="#231815" stroke-miterlimit="10" stroke-width="0.247"/>
    <path id="パス_8" data-name="パス 8" d="M271.781,201.253c.479,3.157,4.938,1.99,7.545-1.988,6.981-10.657-3.528-15.289-7.025-13.1,3.086-1.311,3.282,9.95,7.559,10.674,4.163.7,16.249-13.075,9.685-16.44-.439,2.123-11.718,6.206-9.408,14.612,3.224,11.728-4.807,18.734-2.681,23.057,1.659,3.372,6.815,3.013,8.185-.22a2.152,2.152,0,0,0-3.948-1.714c-1.689,3.6,5.66,7.114,8.893,2.313,1.464-2.175-1.184-3.756-2.672-2.752-3.668,2.472,3.829,8.375,7.538,3.63a1.934,1.934,0,0,0-2.513-2.912c-2.792,1.768.352,6.046,4.546,3.852" fill="none" stroke="#009544" stroke-miterlimit="10" stroke-width="0.247"/>
  </g>
</svg>
