<svg xmlns="http://www.w3.org/2000/svg" width="52.975" height="78.894" viewBox="0 0 52.975 78.894">
  <path id="パス_18" data-name="パス 18" d="M122.587,845.469l-8.241,3.434-4.45-3.434,1.487-5.42h5.18v3.529L109.9,848.9H104.04l-2.867-5.325v-3.529l2.867-1.809,3.738,1.809-1.206,5.42L104.04,846.8l-5.732,2.1-7.023-3.434-.9-7.229,4.674-1.283,3.244,3.092L97,845.469l-6.608,2.609-6.732-3.438-1.707-4.591,1.707-5.568,1.995-6.639L88,821.252l1.2-8.5v-5.6L88,801.629v-9.8l5.446-8.312,7.724-5.875,3.778-3.039,1.621-1.6,1.206,3.294,1.189,6.253-1.189,4.088-3.738,5.186L98.308,798l-4.858,3.632-6.482,2.341-3.311-2.341L81.95,798l-3.5-8.66-1.532-2.692-1.406-1.762-3.091-1.364H78.45l7.2,1.364,5.633,10.453-.9,5.433L85.652,809.8l-8.734,5.813H73.684l-2.172-4.064" transform="translate(-70.189 -771.509)" fill="none" stroke="#707070" stroke-linejoin="round" stroke-width="3"/>
</svg>
