<svg xmlns="http://www.w3.org/2000/svg" width="77.505" height="114.222" viewBox="0 0 77.505 114.222">
  <path id="パス_37" data-name="パス 37" d="M148.871,846.494l2.906,5.184h7.614l7.289-5.184,6.938-13.253,3.02-8.291V814.124l-9.958-8.288L155.8,803.4h-6.927l6.927,5.868,3.594,9.941,7.289,10.914,3.81,3.118h8.174l21.651-23.973,3.042-9.143-3.042-10.2h-2.358l-4.929,4.626L180.439,803.4l-9.949,15.809,3.128,22.893-3.128,23.129-7.27,22.8,7.27,10.344,8.174,1.64,6.3-4.577,2.573-7.407-7.1-4.265-3.8,4.265,2.026,7.407,6.3,4.577h8.066l2.594-1.629,4.693-2.948v-7.407l-4.07-1.923-3.218,1.923-2.11,2.655,2.11,4.752,7.287,4.577h6.323l5.961-1.629,3.325-5.936-3.325-4.419h-5.961l-3.281,4.419,3.281,5.925,9.286,1.64,4.284-1.629" transform="translate(-143.416 -787.928)" fill="none" stroke="#707070" stroke-width="4"/>
</svg>
