<svg xmlns="http://www.w3.org/2000/svg" width="51.093" height="77.594" viewBox="0 0 51.093 77.594">
  <path id="パス_30" data-name="パス 30" d="M71.749,961.262l1.362,2.988,1.771,1.172h3.194l3.934-2.513,2.732-2.269,2.361-3.824,1.9-2.568,1.187-3.189.73-5.966-.73-2.952-2.358-3.633-3.6-3.372-3.586-1.384-3.961-.72-3.572.72,2.88,1.384,1.282,1.758,1.817,4.252,1.553,5.065,2.5,4.847,2.121,1.9,2.564,1.287,4.985-2.023,5.016-3.931,5.581-6.152,3.488-6.07,1.971-5.666-.569-3.581-1.4-2.276-1.65-1.242-1.838,2.181-3.481,2.946L96.02,931.69l-4.4,4.381L89,938.509l-1.9,7.7.725,4.847L89,958.18v9.151l-1.172,5.363L85.264,980l-2.645,6.964-.609,3.576.609,2.5,1.611,2.609,1.778,1.169,1.82.577,3.089.362,2.256-.362,4.13-2.725.968-3.064-.441-2.731-2.442-1.039H93.172l-2.256,1.039-.73,2.731,1.064,3.064,4.136,3.088,3.839.816,5.345-1.179,1.522-1.746,1.791-3.407-.658-2.4-1.977-.967H102.94l-1.831.967-.378,3.2.378,1.629,1.831,1.71,3.958,2.195,3.215.329,2.853-.658,4-3.082v-2.921l-1.394-1.7-.95-.7h-1.659l-1.54.7-1.313.665-.469,1.833.469,2.122.566,1.217,1.21,1.016,2.735,1.179h2.344l3.27-1.179" transform="translate(-70.424 -922.306)" fill="none" stroke="#707070" stroke-linecap="round" stroke-linejoin="round" stroke-width="2"/>
</svg>
