<svg xmlns="http://www.w3.org/2000/svg" width="48.405" height="76.773" viewBox="0 0 48.405 76.773">
  <path id="パス_8" data-name="パス 8" d="M554.374,312.172c.89,5.854,9.159,3.691,13.995-3.688,12.947-19.765-6.543-28.359-13.03-24.289,5.724-2.431,6.089,18.455,14.022,19.8,7.72,1.307,30.139-24.252,17.963-30.493-.814,3.939-21.736,11.512-17.451,27.1,5.98,21.755-8.916,34.75-4.973,42.767,3.077,6.256,12.641,5.59,15.182-.406,2.1-4.949-5.1-7.914-7.323-3.18-3.132,6.68,10.5,13.2,16.5,4.289,2.715-4.033-2.2-6.965-4.957-5.1-6.8,4.586,7.1,15.533,13.981,6.732,2.728-3.492-1.07-7.676-4.66-5.4-5.179,3.279.653,11.215,8.433,7.144" transform="translate(-553.88 -272.754)" fill="none" stroke="#009544" stroke-miterlimit="10" stroke-width="1"/>
</svg>
