<svg xmlns="http://www.w3.org/2000/svg" width="71.139" height="112.719" viewBox="0 0 71.139 112.719">
  <path id="パス_8" data-name="パス 8" d="M271.781,237.961c1.322,8.715,13.632,5.494,20.829-5.488,19.272-29.42-9.74-42.208-19.394-36.151,8.519-3.619,9.061,27.469,20.868,29.467,2.356.4,5.631-.883,9.9-3.736,13.107-8.708,31.241-34.264,16.835-41.649-1.212,5.861-32.349,17.133-25.972,40.339,8.9,32.377-13.271,51.718-7.4,63.653,4.58,9.309,18.814,8.318,22.6-.607,3.12-7.365-7.6-11.777-10.9-4.732C294.482,289,314.77,298.7,323.7,285.442c4.042-6-3.269-10.369-7.377-7.6-10.126,6.824,10.571,23.121,20.81,10.021,4.058-5.2-1.6-11.426-6.938-8.039-7.708,4.881.972,16.691,12.55,10.634" transform="translate(-271.659 -180.22)" fill="none" stroke="#009544" stroke-miterlimit="10" stroke-width="0.247"/>
</svg>
