<svg xmlns="http://www.w3.org/2000/svg" width="26.849" height="41.875" viewBox="0 0 26.849 41.875">
  <path id="パス_35" data-name="パス 35" d="M271.407,201.3l1.971,2.024,3.282-.933,2.713-3.065L281.685,194v-4.4l-5.026-3.5H272.5l2.272,2.168.951,3.1,1.834,3.778,1.82,1.825h2.313l2.069-1.825,4.981-4.833,2.577-5.408v-3.138l-2.577-1.486-1.269,2.19-5.781,5.8-2.313,3.1,1.278,9.924-1.278,8.337-1.82,5.637v3.673l3.1,1.3h3.1l1.651-2.518v-2.46h-2.479l-1.241,1.541,1.241,2.132,2.479,1.995,3.33-.69,2.577-2.518-1.757-2.46-2.09.807v2.866l3.116,1.995h3.025l.429-.409,1.665-1.586v-2.132l-2.094-.735-1.382.735v2.132l2.814,1.995,2.737-.69" transform="translate(-271.048 -179.605)" fill="none" stroke="#707070" stroke-width="1"/>
</svg>
